<?xml version="1.0" standalone="no"?>
<!DOCTYPE svg PUBLIC "-//W3C//DTD SVG 20010904//EN"
 "http://www.w3.org/TR/2001/REC-SVG-20010904/DTD/svg10.dtd">
<svg version="1.0" xmlns="http://www.w3.org/2000/svg"
 width="1000.000000pt" height="1000.000000pt" viewBox="0 0 1000.000000 1000.000000"
 preserveAspectRatio="xMidYMid meet">
<metadata>
Created by potrace 1.11, written by Peter Selinger 2001-2013
</metadata>
<g transform="translate(0.000000,1000.000000) scale(0.100000,-0.100000)"
fill="#000000" stroke="none">
<path d="M850 4995 l0 -2735 370 0 370 0 0 1300 0 1300 1015 0 1015 0 0 -1300
0 -1300 370 0 370 0 0 2735 0 2735 -370 0 -370 0 0 -1125 0 -1125 -1015 0
-1015 0 0 1125 0 1125 -370 0 -370 0 0 -2735z"/>
<path d="M5380 4995 l0 -2735 355 0 355 0 0 2247 c0 1236 4 2243 8 2238 5 -6
412 -993 905 -2195 493 -1202 906 -2209 918 -2237 l22 -53 468 0 469 0 0 2735
0 2735 -355 0 -355 0 0 -2247 c0 -1236 -4 -2243 -8 -2238 -5 6 -413 996 -907
2200 -494 1205 -907 2211 -918 2238 l-20 47 -468 0 -469 0 0 -2735z"/>
</g>
</svg>
